<svg width="19" height="19" viewBox="0 0 19 19" fill="none" xmlns="http://www.w3.org/2000/svg">
<path d="M9.40625 0.849609C10.6177 0.849648 11.7546 1.07563 12.8154 1.52734C13.8735 1.97793 14.7995 2.59549 15.5918 3.37988C16.384 4.16421 17.0084 5.0796 17.4648 6.125C17.9226 7.17344 18.1511 8.29865 18.1504 9.49902C18.1497 10.6993 17.9211 11.825 17.4648 12.874C17.0099 13.9201 16.3854 14.8361 15.5918 15.6211C14.7981 16.4061 13.8721 17.0235 12.8154 17.4727C11.7561 17.9229 10.6197 18.1489 9.40625 18.1504C7.31004 18.1504 5.46606 17.5127 3.88086 16.2383C2.29875 14.9663 1.29815 13.334 0.880859 11.3467C0.826374 11.1543 0.844479 10.9681 0.941406 10.7979C1.04225 10.621 1.20423 10.5182 1.40918 10.4912L1.54785 10.4844C1.68379 10.4901 1.81049 10.5348 1.92285 10.6191L2.02246 10.709C2.08347 10.7743 2.13303 10.8499 2.17188 10.9346L2.22168 11.0674L2.22461 11.0771C2.60513 12.7326 3.46224 14.0968 4.7998 15.1738C6.13643 16.25 7.67041 16.7871 9.40625 16.7871C11.4622 16.787 13.2009 16.0812 14.6309 14.667C16.0609 13.2526 16.7747 11.533 16.7754 9.5C16.7761 7.46718 16.0622 5.74833 14.6309 4.33398C13.1993 2.91953 11.4609 2.21296 9.40625 2.21289C8.31583 2.21289 7.29271 2.43983 6.33594 2.89453C5.47946 3.30102 4.71311 3.84604 4.03516 4.52734H5.81055C6.00026 4.52738 6.16706 4.59234 6.2998 4.72363C6.43264 4.85512 6.49788 5.02083 6.49707 5.20996C6.49618 5.39822 6.43114 5.56352 6.2998 5.69434C6.16786 5.82572 6.00091 5.88961 5.81055 5.88965H2.75391C2.4711 5.8896 2.22699 5.7932 2.03125 5.59961C1.83549 5.40598 1.73741 5.16386 1.7373 4.88281V1.8584C1.73733 1.6693 1.80336 1.50386 1.93652 1.37305C2.06905 1.24289 2.23511 1.17861 2.42383 1.17773C2.61357 1.17689 2.78038 1.24186 2.91309 1.37402C3.04512 1.50565 3.1113 1.67042 3.11133 1.8584V3.49414C3.89711 2.70625 4.79917 2.08063 5.81934 1.62012C6.95466 1.10768 8.15121 0.85033 9.40625 0.849609ZM9.46777 4.03711C9.65748 4.03711 9.82387 4.10281 9.95605 4.23438C10.0879 4.36572 10.1543 4.53043 10.1543 4.71875V9.21582L13.333 12.3594C13.4606 12.4856 13.529 12.6435 13.5381 12.8242C13.5476 13.0167 13.4731 13.1852 13.332 13.3242L13.333 13.3252C13.1954 13.4613 13.0319 13.5391 12.8477 13.5391C12.6624 13.539 12.4987 13.4619 12.3613 13.3252V13.3242L9.08594 10.085C8.98017 9.98111 8.89977 9.86716 8.85059 9.74219C8.80369 9.62291 8.78027 9.49847 8.78027 9.37109V4.71875C8.78027 4.5296 8.84629 4.36424 8.97949 4.2334L9.08496 4.14746C9.19653 4.0739 9.32568 4.03719 9.46777 4.03711Z" fill="#E5E5E5" stroke="#E5E5E5" stroke-width="0.3"/>
</svg>
