<svg width="19" height="19" viewBox="0 0 19 19" fill="none" xmlns="http://www.w3.org/2000/svg">
<path d="M7.80024 14.6H11.2001M1.2988 10.5319C0.998759 8.5786 0.848314 7.6028 1.21805 6.73665C1.58694 5.87135 2.40631 5.2789 4.04421 4.09485L5.26817 3.21C7.30555 1.73695 8.32467 1 9.50018 1C10.6757 1 11.6948 1.73695 13.7322 3.21L14.9562 4.09485C16.594 5.2789 17.4126 5.87135 17.7823 6.73665C18.1512 7.6028 18.0016 8.5786 17.7016 10.5311L17.4457 12.1971C17.0207 14.9647 16.8074 16.3484 15.8146 17.1746C14.8219 18.0008 13.371 18 10.4683 18H8.53121C5.62856 18 4.17766 18 3.18489 17.1746C2.19212 16.3484 1.97963 14.9647 1.55379 12.1962L1.2988 10.5319Z" stroke="#292929" stroke-width="1.5" stroke-linecap="round" stroke-linejoin="round"/>
</svg>
