<svg width="19" height="19" viewBox="0 0 19 19" fill="none" xmlns="http://www.w3.org/2000/svg">
<path d="M9.5 14.2222V14.2317M1 9.5C1 10.6162 1.21986 11.7215 1.64702 12.7528C2.07419 13.7841 2.70029 14.7211 3.48959 15.5104C4.27889 16.2997 5.21592 16.9258 6.24719 17.353C7.27846 17.7801 8.38376 18 9.5 18C10.6162 18 11.7215 17.7801 12.7528 17.353C13.7841 16.9258 14.7211 16.2997 15.5104 15.5104C16.2997 14.7211 16.9258 13.7841 17.353 12.7528C17.7801 11.7215 18 10.6162 18 9.5C18 8.38376 17.7801 7.27846 17.353 6.24719C16.9258 5.21592 16.2997 4.27889 15.5104 3.48959C14.7211 2.70029 13.7841 2.07419 12.7528 1.64702C11.7215 1.21986 10.6162 1 9.5 1C8.38376 1 7.27846 1.21986 6.24719 1.64702C5.21592 2.07419 4.27889 2.70029 3.48959 3.48959C2.70029 4.27889 2.07419 5.21592 1.64702 6.24719C1.21986 7.27846 1 8.38376 1 9.5Z" stroke="#444444" stroke-width="1.5" stroke-linecap="round" stroke-linejoin="round"/>
<path d="M9.5 10.9168C9.48261 10.6102 9.56532 10.3062 9.73566 10.0507C9.906 9.79521 10.1548 9.60197 10.4444 9.5001C10.7994 9.36435 11.1181 9.14805 11.3753 8.86822C11.6325 8.5884 11.8212 8.2527 11.9266 7.88755C12.032 7.52239 12.0512 7.13776 11.9827 6.76392C11.9142 6.39008 11.7598 6.03725 11.5318 5.7332C11.3038 5.42915 11.0083 5.18218 10.6686 5.01174C10.3289 4.8413 9.95423 4.75204 9.57417 4.75099C9.19411 4.74993 8.81899 4.83711 8.47835 5.00567C8.1377 5.17422 7.84084 5.41954 7.61111 5.72232" stroke="#444444" stroke-width="1.5" stroke-linecap="round" stroke-linejoin="round"/>
</svg>
