<svg width="18" height="19" viewBox="0 0 18 19" fill="none" xmlns="http://www.w3.org/2000/svg">
<path d="M13.9524 9.09524V4.0349C13.9524 3.971 13.9399 3.90772 13.9154 3.84868C13.891 3.78965 13.8551 3.73601 13.8099 3.69086L11.2615 1.14248C11.1705 1.05136 11.0471 1.00011 10.9183 1H1.48571C1.35689 1 1.23335 1.05117 1.14226 1.14226C1.05117 1.23335 1 1.35689 1 1.48571V16.7048C1 16.8336 1.05117 16.9571 1.14226 17.0482C1.23335 17.1393 1.35689 17.1905 1.48571 17.1905H8.28571M4.2381 7.47619H10.7143M4.2381 4.2381H7.47619M4.2381 10.7143H6.66667" stroke="#444444" stroke-width="1.5" stroke-linecap="round" stroke-linejoin="round"/>
<path d="M10.7143 1V3.75238C10.7143 3.8812 10.7655 4.00474 10.8565 4.09583C10.9476 4.18692 11.0712 4.2381 11.2 4.2381H13.9524M13.9459 11.625L16.015 12.1504C16.2304 12.2054 16.3818 12.4013 16.3753 12.6231C16.236 17.2844 13.5476 18 13.5476 18C13.5476 18 10.8592 17.2844 10.7199 12.6231C10.7177 12.5152 10.7521 12.4098 10.8176 12.3239C10.883 12.238 10.9756 12.1769 11.0802 12.1504L13.1493 11.625C13.4108 11.5586 13.6844 11.5586 13.9459 11.625Z" stroke="#444444" stroke-width="1.5" stroke-linecap="round" stroke-linejoin="round"/>
</svg>
