<svg width="17" height="19" viewBox="0 0 17 19" fill="none" xmlns="http://www.w3.org/2000/svg">
<path d="M10.5891 1.00342V4.30758C10.5891 4.75506 10.7673 5.18508 11.0852 5.50208C11.404 5.81943 11.8355 5.99751 12.2853 5.99734H16.0755" stroke="#444444" stroke-width="1.5" stroke-linecap="round" stroke-linejoin="round"/>
<path d="M4.58074 5.50051H7.58077M4.58074 9.50024H12.5802M4.58074 13.5H12.5802M16.1609 6.34676V14.2194C16.1427 14.7344 16.0227 15.2406 15.8079 15.709C15.5932 16.1774 15.2878 16.5986 14.9095 16.9484C14.5308 17.2998 14.0867 17.5732 13.6023 17.753C13.118 17.9327 12.603 18.0152 12.0868 17.9959H5.11275C4.59336 18.0196 4.0744 17.9406 3.58561 17.7634C3.09682 17.5862 2.64781 17.3142 2.26433 16.9631C1.88234 16.6123 1.57386 16.1892 1.35681 15.7181C1.13977 15.2471 1.01848 14.7377 1 14.2194V4.77921C1.01824 4.26427 1.13821 3.75803 1.353 3.28966C1.56779 2.82129 1.87314 2.40006 2.25147 2.05024C2.63011 1.69881 3.07428 1.42541 3.5586 1.24568C4.04293 1.06595 4.55792 0.983406 5.07416 1.00276H10.3244C11.1259 0.99993 11.8996 1.29648 12.4938 1.83432L15.2136 4.33541C15.5038 4.58541 15.7382 4.8937 15.9014 5.24024C16.0646 5.58678 16.153 5.96379 16.1609 6.34676Z" stroke="#444444" stroke-width="1.5" stroke-linecap="round" stroke-linejoin="round"/>
</svg>
