<?xml version="1.0" standalone="no"?>
<!DOCTYPE svg PUBLIC "-//W3C//DTD SVG 20010904//EN"
 "http://www.w3.org/TR/2001/REC-SVG-20010904/DTD/svg10.dtd">
<svg version="1.0" xmlns="http://www.w3.org/2000/svg"
 width="500.000000pt" height="500.000000pt" viewBox="0 0 500.000000 500.000000"
 preserveAspectRatio="xMidYMid meet">

<g transform="translate(0.000000,500.000000) scale(0.100000,-0.100000)"
fill="#000000" stroke="none">
<path d="M2560 4353 c-232 -24 -525 -151 -715 -310 -259 -215 -425 -491 -497
-825 -30 -143 -30 -408 0 -548 11 -52 23 -102 27 -111 5 -15 -9 -17 -122 -21
-110 -4 -136 -8 -183 -30 -81 -37 -153 -107 -192 -186 l-33 -67 -3 -459 c-3
-518 -4 -511 72 -613 26 -36 67 -73 104 -97 34 -22 62 -46 62 -54 0 -27 -50
-162 -85 -227 -40 -75 -41 -84 -20 -125 20 -38 60 -48 145 -38 210 27 427 155
575 340 l30 37 400 3 400 3 66 31 c158 75 239 207 239 390 l0 73 48 6 c192 25
334 66 487 140 409 198 686 562 776 1019 18 96 20 133 16 295 -6 234 -27 332
-111 530 -71 169 -158 295 -300 437 -224 223 -506 365 -806 404 -71 9 -305 11
-380 3z m100 -507 c0 -228 -3 -337 -11 -341 -23 -15 -449 52 -472 74 -20 20
102 275 184 383 28 37 74 87 102 112 51 43 160 105 185 106 9 0 12 -73 12
-334z m280 288 c113 -69 219 -194 294 -347 83 -169 92 -212 49 -220 -16 -2
-62 -12 -103 -21 -73 -17 -283 -46 -327 -46 l-23 0 0 340 0 340 28 -6 c15 -4
52 -22 82 -40z m-726 -76 c-4 -7 -24 -38 -44 -68 -44 -65 -121 -223 -145 -297
-10 -29 -22 -53 -27 -53 -16 0 -141 68 -173 95 l-30 24 84 81 c68 66 186 152
296 217 27 16 48 16 39 1z m1093 0 c65 -28 225 -143 303 -218 l85 -82 -28 -22
c-30 -24 -177 -100 -182 -94 -2 2 -17 37 -33 78 -50 125 -79 182 -136 268 -29
45 -50 82 -45 82 4 0 21 -5 36 -12z m-1518 -503 c51 -30 93 -55 95 -55 2 0 19
-7 39 -15 34 -14 35 -15 26 -52 -11 -49 -49 -336 -49 -374 l0 -29 -200 0 -200
0 0 23 c0 80 50 274 101 388 35 80 84 169 93 169 2 0 45 -25 95 -55z m2062
-39 c67 -127 118 -291 134 -433 l6 -53 -201 0 c-110 0 -200 1 -200 3 0 36 -35
310 -45 361 -8 38 -14 71 -12 72 1 1 46 25 100 53 54 28 110 60 124 71 15 11
31 19 37 17 6 -2 32 -43 57 -91z m-1676 -116 c66 -25 349 -67 468 -70 16 0 17
-12 15 -147 l-3 -148 -289 -3 -289 -2 6 107 c4 60 13 143 22 186 8 43 15 81
15 83 0 7 28 4 55 -6z m1195 6 c0 -2 9 -61 20 -132 11 -71 20 -155 20 -186 l0
-58 -290 0 -290 0 0 150 c0 113 3 150 13 150 107 3 375 41 449 64 43 14 78 19
78 12z m-1462 -668 c7 -68 15 -140 19 -160 l6 -38 -186 0 -186 0 -16 53 c-19
62 -45 200 -45 240 l0 27 198 0 198 0 12 -122z m750 -58 c1 -96 0 -180 -2
-187 -4 -9 -21 -5 -63 15 -56 26 -64 27 -270 30 l-212 3 -11 52 c-12 60 -28
256 -21 263 3 2 133 3 290 2 l286 -3 3 -175z m752 120 c0 -106 -54 -403 -89
-493 -5 -12 -24 -60 -42 -107 -79 -205 -220 -385 -359 -459 -99 -53 -90 -109
-90 544 l0 575 290 0 290 0 0 -60z m575 -2 c-22 -195 -105 -410 -224 -578 -69
-98 -225 -250 -321 -313 -80 -51 -162 -97 -175 -97 -3 0 17 33 44 73 50 73
110 190 136 262 8 22 22 60 31 85 44 123 86 323 99 480 3 41 8 92 11 113 l6
37 200 0 200 0 -7 -62z m-1484 -440 c51 -17 97 -56 127 -107 l27 -46 0 -420
c0 -380 -2 -423 -17 -455 -23 -46 -35 -60 -82 -95 l-39 -30 -431 -5 c-453 -5
-463 -6 -487 -51 -32 -61 -145 -176 -221 -226 -70 -45 -157 -87 -166 -79 -2 3
7 43 22 88 14 46 29 113 32 149 8 81 -5 99 -91 124 -69 20 -138 83 -154 141
-7 25 -11 187 -11 444 0 373 2 408 19 446 21 46 83 102 132 120 48 17 1291 19
1340 2z"/>
<path d="M1353 2086 c-36 -31 -39 -95 -5 -128 l23 -23 440 0 441 0 24 28 c40
47 29 104 -26 132 -24 13 -94 15 -449 15 l-420 0 -28 -24z"/>
<path d="M1345 1628 c-22 -26 -26 -39 -21 -67 11 -72 -1 -71 486 -71 239 0
440 4 446 8 20 14 44 57 44 78 0 13 -12 36 -26 53 l-26 31 -438 0 -438 0 -27
-32z"/>
</g>
</svg>
