<svg width="18" height="19" viewBox="0 0 18 19" fill="none" xmlns="http://www.w3.org/2000/svg">
<path d="M9 9.50051L16.5981 5.25077M9 9.50051V18M9 9.50051L5.20047 7.3761M16.5981 5.25077C16.3345 4.80887 15.9563 4.44252 15.5016 4.18856L13 2.78913M16.5981 5.25077C16.8569 5.68447 17 6.18341 17 6.70257V12.2985C16.9997 12.8093 16.8609 13.311 16.5978 13.7526C16.3346 14.1941 15.9564 14.5598 15.5016 14.8125L10.4984 17.6113C10.0422 17.8663 9.52563 18.0003 9 18M9 18C8.47437 18.0003 7.9578 17.8663 7.50165 17.6113L2.49835 14.8125C1.57129 14.2942 1 13.3368 1 12.2985V6.70257C0.999863 6.19255 1.13821 5.6916 1.40094 5.25077M5.20047 7.3761L1.40094 5.25077M5.20047 7.3761L13 2.78913M13 2.78913L10.4984 1.3897C10.0423 1.13435 9.52573 1 9 1C8.47427 1 7.9577 1.13435 7.50165 1.3897L2.49835 4.18856C2.04334 4.44239 1.66484 4.80875 1.40094 5.25077" stroke="#E5E5E5" stroke-width="1.5" stroke-linejoin="round"/>
</svg>
