<svg width="20" height="22" viewBox="0 0 20 22" fill="none" xmlns="http://www.w3.org/2000/svg">
<path d="M10 12C12.396 12 14.575 12.694 16.178 13.672C16.978 14.16 17.662 14.736 18.156 15.362C18.642 15.977 19 16.713 19 17.5C19 18.345 18.589 19.011 17.997 19.486C17.437 19.936 16.698 20.234 15.913 20.442C14.335 20.859 12.229 21 10 21C7.771 21 5.665 20.86 4.087 20.442C3.302 20.234 2.563 19.936 2.003 19.486C1.41 19.01 1 18.345 1 17.5C1 16.713 1.358 15.977 1.844 15.361C2.338 14.736 3.021 14.161 3.822 13.671C5.425 12.695 7.605 12 10 12ZM10 1C11.3261 1 12.5979 1.52678 13.5355 2.46447C14.4732 3.40215 15 4.67392 15 6C15 7.32608 14.4732 8.59785 13.5355 9.53553C12.5979 10.4732 11.3261 11 10 11C8.67392 11 7.40215 10.4732 6.46447 9.53553C5.52678 8.59785 5 7.32608 5 6C5 4.67392 5.52678 3.40215 6.46447 2.46447C7.40215 1.52678 8.67392 1 10 1Z" stroke="#E5E5E5" stroke-width="1.5"/>
</svg>
