<svg width="19" height="19" viewBox="0 0 19 19" fill="none" xmlns="http://www.w3.org/2000/svg">
<path d="M18 9.5H16.1112M16.1112 9.5C16.1112 11.2535 15.4151 12.9348 14.1751 14.1747C12.9352 15.4146 11.2535 16.1112 9.5 16.1112M16.1112 9.5C16.1112 7.74648 15.4151 6.06433 14.1751 4.8244C12.9352 3.58448 11.2535 2.88879 9.5 2.88879M9.5 1V2.88879M9.5 2.88879C7.7466 2.88879 6.06501 3.58443 4.82517 4.82427C3.58533 6.06412 2.88879 7.7457 2.88879 9.4991C2.88879 11.2525 3.58533 12.9341 4.82517 14.1739C6.06501 15.4138 7.7466 16.1112 9.5 16.1112M1 9.5H2.88879M9.5 18V16.1112" stroke="#E5E5E5" stroke-width="1.5" stroke-miterlimit="10" stroke-linecap="round"/>
<path d="M9.49998 12.9001C10.4017 12.9001 11.2665 12.5419 11.9041 11.9043C12.5418 11.2666 12.9 10.4018 12.9 9.5001C12.9 8.59836 12.5418 7.73356 11.9041 7.09593C11.2665 6.45831 10.4017 6.1001 9.49998 6.1001C8.59824 6.1001 7.73344 6.45831 7.09581 7.09593C6.45819 7.73356 6.09998 8.59836 6.09998 9.5001C6.09998 10.4018 6.45819 11.2666 7.09581 11.9043C7.73344 12.5419 8.59824 12.9001 9.49998 12.9001Z" stroke="#E5E5E5" stroke-width="1.5" stroke-miterlimit="10" stroke-linecap="round"/>
</svg>
